M48
; DRILL file {KiCad (5.1.10)-1} date 10/26/21 01:18:36
; FORMAT={-:-/ absolute / metric / decimal}
; #@! TF.CreationDate,2021-10-26T01:18:36+07:00
; #@! TF.GenerationSoftware,Kicad,Pcbnew,(5.1.10)-1
; #@! TF.FileFunction,Plated,1,2,PTH
FMAT,2
METRIC
T1C0.700
T2C0.900
T3C1.000
T4C1.200
T5C1.400
%
G90
G05
T1
X95.885Y-80.01
X95.885Y-85.09
X98.425Y-82.55
T2
X88.265Y-101.6
X90.765Y-99.1
X93.265Y-101.6
T3
X78.74Y-80.01
X78.74Y-103.18
X78.74Y-106.68
X86.34Y-80.01
X95.25Y-92.075
X95.25Y-94.615
T4
X87.63Y-112.395
X100.33Y-112.395
T5
X88.265Y-106.68
X98.425Y-106.68
T3
G00X79.09Y-91.49
M15
G01X79.09Y-93.49
M16
G05
G00X81.09Y-97.19
M15
G01X83.09Y-97.19
M16
G05
G00X85.09Y-91.49
M15
G01X85.09Y-93.49
M16
G05
T0
M30
