%TF.GenerationSoftware,KiCad,Pcbnew,(5.1.10)-1*%
%TF.CreationDate,2021-10-26T01:17:56+07:00*%
%TF.ProjectId,first,66697273-742e-46b6-9963-61645f706362,rev?*%
%TF.SameCoordinates,Original*%
%TF.FileFunction,Copper,L1,Top*%
%TF.FilePolarity,Positive*%
%FSLAX46Y46*%
G04 Gerber Fmt 4.6, Leading zero omitted, Abs format (unit mm)*
G04 Created by KiCad (PCBNEW (5.1.10)-1) date 2021-10-26 01:17:56*
%MOMM*%
%LPD*%
G01*
G04 APERTURE LIST*
%TA.AperFunction,ComponentPad*%
%ADD10O,1.700000X1.700000*%
%TD*%
%TA.AperFunction,ComponentPad*%
%ADD11R,1.700000X1.700000*%
%TD*%
%TA.AperFunction,ComponentPad*%
%ADD12R,2.000000X2.000000*%
%TD*%
%TA.AperFunction,ComponentPad*%
%ADD13C,2.000000*%
%TD*%
%TA.AperFunction,ComponentPad*%
%ADD14R,2.800000X2.800000*%
%TD*%
%TA.AperFunction,ComponentPad*%
%ADD15O,2.800000X2.800000*%
%TD*%
%TA.AperFunction,ComponentPad*%
%ADD16R,3.500000X3.500000*%
%TD*%
%TA.AperFunction,ComponentPad*%
%ADD17O,1.200000X1.600000*%
%TD*%
%TA.AperFunction,ComponentPad*%
%ADD18O,1.200000X1.200000*%
%TD*%
%TA.AperFunction,ComponentPad*%
%ADD19C,2.400000*%
%TD*%
%TA.AperFunction,ComponentPad*%
%ADD20O,2.400000X2.400000*%
%TD*%
%TA.AperFunction,ComponentPad*%
%ADD21C,1.620000*%
%TD*%
%TA.AperFunction,Conductor*%
%ADD22C,0.254000*%
%TD*%
%TA.AperFunction,Conductor*%
%ADD23C,0.100000*%
%TD*%
G04 APERTURE END LIST*
D10*
%TO.P,TH1,2*%
%TO.N,Net-(D1-Pad1)*%
X95250000Y-94615000D03*
D11*
%TO.P,TH1,1*%
%TO.N,Net-(BZ1-Pad1)*%
X95250000Y-92075000D03*
%TD*%
D12*
%TO.P,BZ1,1*%
%TO.N,Net-(BZ1-Pad1)*%
X78740000Y-80010000D03*
D13*
%TO.P,BZ1,2*%
%TO.N,Net-(BZ1-Pad2)*%
X86340000Y-80010000D03*
%TD*%
D12*
%TO.P,C1,1*%
%TO.N,Net-(C1-Pad1)*%
X78740000Y-106680000D03*
D13*
%TO.P,C1,2*%
%TO.N,Net-(C1-Pad2)*%
X78740000Y-103180000D03*
%TD*%
D14*
%TO.P,D1,1*%
%TO.N,Net-(D1-Pad1)*%
X88265000Y-106680000D03*
D15*
%TO.P,D1,2*%
%TO.N,Net-(C1-Pad1)*%
X98425000Y-106680000D03*
%TD*%
D16*
%TO.P,J1,1*%
%TO.N,Net-(BZ1-Pad1)*%
X85090000Y-92490001D03*
%TO.P,J1,2*%
%TO.N,Net-(C1-Pad2)*%
%TA.AperFunction,ComponentPad*%
G36*
G01*
X77590000Y-93490001D02*
X77590000Y-91490001D01*
G75*
G02*
X78340000Y-90740001I750000J0D01*
G01*
X79840000Y-90740001D01*
G75*
G02*
X80590000Y-91490001I0J-750000D01*
G01*
X80590000Y-93490001D01*
G75*
G02*
X79840000Y-94240001I-750000J0D01*
G01*
X78340000Y-94240001D01*
G75*
G02*
X77590000Y-93490001I0J750000D01*
G01*
G37*
%TD.AperFunction*%
%TO.P,J1,3*%
%TO.N,Net-(J1-Pad3)*%
%TA.AperFunction,ComponentPad*%
G36*
G01*
X80340000Y-98065001D02*
X80340000Y-96315001D01*
G75*
G02*
X81215000Y-95440001I875000J0D01*
G01*
X82965000Y-95440001D01*
G75*
G02*
X83840000Y-96315001I0J-875000D01*
G01*
X83840000Y-98065001D01*
G75*
G02*
X82965000Y-98940001I-875000J0D01*
G01*
X81215000Y-98940001D01*
G75*
G02*
X80340000Y-98065001I0J875000D01*
G01*
G37*
%TD.AperFunction*%
%TD*%
D17*
%TO.P,Q1,1*%
%TO.N,Net-(C1-Pad2)*%
X95885000Y-85090000D03*
D18*
%TO.P,Q1,2*%
%TO.N,Net-(Q1-Pad2)*%
X98425000Y-82550000D03*
%TO.P,Q1,3*%
%TO.N,Net-(BZ1-Pad2)*%
X95885000Y-80010000D03*
%TD*%
D19*
%TO.P,R1,1*%
%TO.N,Net-(Q1-Pad2)*%
X100330000Y-112395000D03*
D20*
%TO.P,R1,2*%
%TO.N,Net-(C1-Pad1)*%
X87630000Y-112395000D03*
%TD*%
D21*
%TO.P,RV1,3*%
%TO.N,Net-(C1-Pad2)*%
X93265000Y-101600000D03*
%TO.P,RV1,2*%
X90765000Y-99100000D03*
%TO.P,RV1,1*%
%TO.N,Net-(D1-Pad1)*%
X88265000Y-101600000D03*
%TD*%
D22*
%TO.N,Net-(C1-Pad2)*%
X106655000Y-116180000D02*
X71145000Y-116180000D01*
X71145000Y-112809872D01*
X72060000Y-112809872D01*
X72060000Y-113250128D01*
X72145890Y-113681925D01*
X72314369Y-114088669D01*
X72558962Y-114454729D01*
X72870271Y-114766038D01*
X73236331Y-115010631D01*
X73643075Y-115179110D01*
X74074872Y-115265000D01*
X74515128Y-115265000D01*
X74946925Y-115179110D01*
X75353669Y-115010631D01*
X75719729Y-114766038D01*
X76031038Y-114454729D01*
X76275631Y-114088669D01*
X76444110Y-113681925D01*
X76530000Y-113250128D01*
X76530000Y-112809872D01*
X76444110Y-112378075D01*
X76376259Y-112214268D01*
X85795000Y-112214268D01*
X85795000Y-112575732D01*
X85865518Y-112930250D01*
X86003844Y-113264199D01*
X86204662Y-113564744D01*
X86460256Y-113820338D01*
X86760801Y-114021156D01*
X87094750Y-114159482D01*
X87449268Y-114230000D01*
X87810732Y-114230000D01*
X88165250Y-114159482D01*
X88499199Y-114021156D01*
X88799744Y-113820338D01*
X89055338Y-113564744D01*
X89256156Y-113264199D01*
X89394482Y-112930250D01*
X89465000Y-112575732D01*
X89465000Y-112214268D01*
X98495000Y-112214268D01*
X98495000Y-112575732D01*
X98565518Y-112930250D01*
X98703844Y-113264199D01*
X98904662Y-113564744D01*
X99160256Y-113820338D01*
X99460801Y-114021156D01*
X99794750Y-114159482D01*
X100149268Y-114230000D01*
X100510732Y-114230000D01*
X100865250Y-114159482D01*
X101199199Y-114021156D01*
X101499744Y-113820338D01*
X101755338Y-113564744D01*
X101956156Y-113264199D01*
X102094482Y-112930250D01*
X102165000Y-112575732D01*
X102165000Y-112214268D01*
X102094482Y-111859750D01*
X101956156Y-111525801D01*
X101755338Y-111225256D01*
X101499744Y-110969662D01*
X101199199Y-110768844D01*
X100865250Y-110630518D01*
X100510732Y-110560000D01*
X100149268Y-110560000D01*
X99794750Y-110630518D01*
X99460801Y-110768844D01*
X99160256Y-110969662D01*
X98904662Y-111225256D01*
X98703844Y-111525801D01*
X98565518Y-111859750D01*
X98495000Y-112214268D01*
X89465000Y-112214268D01*
X89394482Y-111859750D01*
X89256156Y-111525801D01*
X89055338Y-111225256D01*
X88799744Y-110969662D01*
X88499199Y-110768844D01*
X88165250Y-110630518D01*
X87810732Y-110560000D01*
X87449268Y-110560000D01*
X87094750Y-110630518D01*
X86760801Y-110768844D01*
X86460256Y-110969662D01*
X86204662Y-111225256D01*
X86003844Y-111525801D01*
X85865518Y-111859750D01*
X85795000Y-112214268D01*
X76376259Y-112214268D01*
X76275631Y-111971331D01*
X76031038Y-111605271D01*
X75719729Y-111293962D01*
X75353669Y-111049369D01*
X74946925Y-110880890D01*
X74515128Y-110795000D01*
X74074872Y-110795000D01*
X73643075Y-110880890D01*
X73236331Y-111049369D01*
X72870271Y-111293962D01*
X72558962Y-111605271D01*
X72314369Y-111971331D01*
X72145890Y-112378075D01*
X72060000Y-112809872D01*
X71145000Y-112809872D01*
X71145000Y-105680000D01*
X77101928Y-105680000D01*
X77101928Y-107680000D01*
X77114188Y-107804482D01*
X77150498Y-107924180D01*
X77209463Y-108034494D01*
X77288815Y-108131185D01*
X77385506Y-108210537D01*
X77495820Y-108269502D01*
X77615518Y-108305812D01*
X77740000Y-108318072D01*
X79740000Y-108318072D01*
X79864482Y-108305812D01*
X79984180Y-108269502D01*
X80094494Y-108210537D01*
X80191185Y-108131185D01*
X80270537Y-108034494D01*
X80329502Y-107924180D01*
X80365812Y-107804482D01*
X80378072Y-107680000D01*
X80378072Y-105680000D01*
X80365812Y-105555518D01*
X80329502Y-105435820D01*
X80270537Y-105325506D01*
X80233192Y-105280000D01*
X86226928Y-105280000D01*
X86226928Y-108080000D01*
X86239188Y-108204482D01*
X86275498Y-108324180D01*
X86334463Y-108434494D01*
X86413815Y-108531185D01*
X86510506Y-108610537D01*
X86620820Y-108669502D01*
X86740518Y-108705812D01*
X86865000Y-108718072D01*
X89665000Y-108718072D01*
X89789482Y-108705812D01*
X89909180Y-108669502D01*
X90019494Y-108610537D01*
X90116185Y-108531185D01*
X90195537Y-108434494D01*
X90254502Y-108324180D01*
X90290812Y-108204482D01*
X90303072Y-108080000D01*
X90303072Y-106479570D01*
X96390000Y-106479570D01*
X96390000Y-106880430D01*
X96468204Y-107273587D01*
X96621607Y-107643934D01*
X96844313Y-107977237D01*
X97127763Y-108260687D01*
X97461066Y-108483393D01*
X97831413Y-108636796D01*
X98224570Y-108715000D01*
X98625430Y-108715000D01*
X99018587Y-108636796D01*
X99388934Y-108483393D01*
X99722237Y-108260687D01*
X100005687Y-107977237D01*
X100228393Y-107643934D01*
X100381796Y-107273587D01*
X100460000Y-106880430D01*
X100460000Y-106479570D01*
X100381796Y-106086413D01*
X100228393Y-105716066D01*
X100005687Y-105382763D01*
X99722237Y-105099313D01*
X99388934Y-104876607D01*
X99018587Y-104723204D01*
X98625430Y-104645000D01*
X98224570Y-104645000D01*
X97831413Y-104723204D01*
X97461066Y-104876607D01*
X97127763Y-105099313D01*
X96844313Y-105382763D01*
X96621607Y-105716066D01*
X96468204Y-106086413D01*
X96390000Y-106479570D01*
X90303072Y-106479570D01*
X90303072Y-105280000D01*
X90290812Y-105155518D01*
X90254502Y-105035820D01*
X90195537Y-104925506D01*
X90116185Y-104828815D01*
X90019494Y-104749463D01*
X89909180Y-104690498D01*
X89789482Y-104654188D01*
X89665000Y-104641928D01*
X86865000Y-104641928D01*
X86740518Y-104654188D01*
X86620820Y-104690498D01*
X86510506Y-104749463D01*
X86413815Y-104828815D01*
X86334463Y-104925506D01*
X86275498Y-105035820D01*
X86239188Y-105155518D01*
X86226928Y-105280000D01*
X80233192Y-105280000D01*
X80191185Y-105228815D01*
X80094494Y-105149463D01*
X79984180Y-105090498D01*
X79864482Y-105054188D01*
X79740000Y-105041928D01*
X77740000Y-105041928D01*
X77615518Y-105054188D01*
X77495820Y-105090498D01*
X77385506Y-105149463D01*
X77288815Y-105228815D01*
X77209463Y-105325506D01*
X77150498Y-105435820D01*
X77114188Y-105555518D01*
X77101928Y-105680000D01*
X71145000Y-105680000D01*
X71145000Y-104315413D01*
X77784192Y-104315413D01*
X77879956Y-104579814D01*
X78169571Y-104720704D01*
X78481108Y-104802384D01*
X78802595Y-104821718D01*
X79121675Y-104777961D01*
X79426088Y-104672795D01*
X79600044Y-104579814D01*
X79695808Y-104315413D01*
X78740000Y-103359605D01*
X77784192Y-104315413D01*
X71145000Y-104315413D01*
X71145000Y-103242595D01*
X77098282Y-103242595D01*
X77142039Y-103561675D01*
X77247205Y-103866088D01*
X77340186Y-104040044D01*
X77604587Y-104135808D01*
X78560395Y-103180000D01*
X78919605Y-103180000D01*
X79875413Y-104135808D01*
X80139814Y-104040044D01*
X80280704Y-103750429D01*
X80362384Y-103438892D01*
X80381718Y-103117405D01*
X80337961Y-102798325D01*
X80232795Y-102493912D01*
X80139814Y-102319956D01*
X79875413Y-102224192D01*
X78919605Y-103180000D01*
X78560395Y-103180000D01*
X77604587Y-102224192D01*
X77340186Y-102319956D01*
X77199296Y-102609571D01*
X77117616Y-102921108D01*
X77098282Y-103242595D01*
X71145000Y-103242595D01*
X71145000Y-102044587D01*
X77784192Y-102044587D01*
X78740000Y-103000395D01*
X79695808Y-102044587D01*
X79600044Y-101780186D01*
X79310429Y-101639296D01*
X78998892Y-101557616D01*
X78677405Y-101538282D01*
X78358325Y-101582039D01*
X78053912Y-101687205D01*
X77879956Y-101780186D01*
X77784192Y-102044587D01*
X71145000Y-102044587D01*
X71145000Y-101457680D01*
X86820000Y-101457680D01*
X86820000Y-101742320D01*
X86875530Y-102021491D01*
X86984457Y-102284464D01*
X87142595Y-102521134D01*
X87343866Y-102722405D01*
X87580536Y-102880543D01*
X87843509Y-102989470D01*
X88122680Y-103045000D01*
X88407320Y-103045000D01*
X88686491Y-102989470D01*
X88949464Y-102880543D01*
X89186134Y-102722405D01*
X89308696Y-102599843D01*
X92444762Y-102599843D01*
X92517556Y-102844832D01*
X92774773Y-102966733D01*
X93050829Y-103036110D01*
X93335115Y-103050298D01*
X93616706Y-103008752D01*
X93884783Y-102913068D01*
X94012444Y-102844832D01*
X94085238Y-102599843D01*
X93265000Y-101779605D01*
X92444762Y-102599843D01*
X89308696Y-102599843D01*
X89387405Y-102521134D01*
X89545543Y-102284464D01*
X89654470Y-102021491D01*
X89710000Y-101742320D01*
X89710000Y-101670115D01*
X91814702Y-101670115D01*
X91856248Y-101951706D01*
X91951932Y-102219783D01*
X92020168Y-102347444D01*
X92265157Y-102420238D01*
X93085395Y-101600000D01*
X93444605Y-101600000D01*
X94264843Y-102420238D01*
X94509832Y-102347444D01*
X94631733Y-102090227D01*
X94701110Y-101814171D01*
X94715298Y-101529885D01*
X94673752Y-101248294D01*
X94578068Y-100980217D01*
X94509832Y-100852556D01*
X94264843Y-100779762D01*
X93444605Y-101600000D01*
X93085395Y-101600000D01*
X92265157Y-100779762D01*
X92020168Y-100852556D01*
X91898267Y-101109773D01*
X91828890Y-101385829D01*
X91814702Y-101670115D01*
X89710000Y-101670115D01*
X89710000Y-101457680D01*
X89654470Y-101178509D01*
X89545543Y-100915536D01*
X89387405Y-100678866D01*
X89308696Y-100600157D01*
X92444762Y-100600157D01*
X93265000Y-101420395D01*
X94085238Y-100600157D01*
X94012444Y-100355168D01*
X93755227Y-100233267D01*
X93479171Y-100163890D01*
X93194885Y-100149702D01*
X92913294Y-100191248D01*
X92645217Y-100286932D01*
X92517556Y-100355168D01*
X92444762Y-100600157D01*
X89308696Y-100600157D01*
X89186134Y-100477595D01*
X88949464Y-100319457D01*
X88686491Y-100210530D01*
X88407320Y-100155000D01*
X88122680Y-100155000D01*
X87843509Y-100210530D01*
X87580536Y-100319457D01*
X87343866Y-100477595D01*
X87142595Y-100678866D01*
X86984457Y-100915536D01*
X86875530Y-101178509D01*
X86820000Y-101457680D01*
X71145000Y-101457680D01*
X71145000Y-100099843D01*
X89944762Y-100099843D01*
X90017556Y-100344832D01*
X90274773Y-100466733D01*
X90550829Y-100536110D01*
X90835115Y-100550298D01*
X91116706Y-100508752D01*
X91384783Y-100413068D01*
X91512444Y-100344832D01*
X91585238Y-100099843D01*
X90765000Y-99279605D01*
X89944762Y-100099843D01*
X71145000Y-100099843D01*
X71145000Y-96315001D01*
X79701928Y-96315001D01*
X79701928Y-98065001D01*
X79731001Y-98360187D01*
X79817104Y-98644029D01*
X79956927Y-98905619D01*
X80145097Y-99134904D01*
X80374382Y-99323074D01*
X80635972Y-99462897D01*
X80919814Y-99549000D01*
X81215000Y-99578073D01*
X82965000Y-99578073D01*
X83260186Y-99549000D01*
X83544028Y-99462897D01*
X83805618Y-99323074D01*
X83991998Y-99170115D01*
X89314702Y-99170115D01*
X89356248Y-99451706D01*
X89451932Y-99719783D01*
X89520168Y-99847444D01*
X89765157Y-99920238D01*
X90585395Y-99100000D01*
X90944605Y-99100000D01*
X91764843Y-99920238D01*
X92009832Y-99847444D01*
X92131733Y-99590227D01*
X92201110Y-99314171D01*
X92215298Y-99029885D01*
X92173752Y-98748294D01*
X92078068Y-98480217D01*
X92009832Y-98352556D01*
X91764843Y-98279762D01*
X90944605Y-99100000D01*
X90585395Y-99100000D01*
X89765157Y-98279762D01*
X89520168Y-98352556D01*
X89398267Y-98609773D01*
X89328890Y-98885829D01*
X89314702Y-99170115D01*
X83991998Y-99170115D01*
X84034903Y-99134904D01*
X84223073Y-98905619D01*
X84362896Y-98644029D01*
X84448999Y-98360187D01*
X84474609Y-98100157D01*
X89944762Y-98100157D01*
X90765000Y-98920395D01*
X91585238Y-98100157D01*
X91512444Y-97855168D01*
X91255227Y-97733267D01*
X90979171Y-97663890D01*
X90694885Y-97649702D01*
X90413294Y-97691248D01*
X90145217Y-97786932D01*
X90017556Y-97855168D01*
X89944762Y-98100157D01*
X84474609Y-98100157D01*
X84478072Y-98065001D01*
X84478072Y-96315001D01*
X84448999Y-96019815D01*
X84362896Y-95735973D01*
X84223073Y-95474383D01*
X84034903Y-95245098D01*
X83805618Y-95056928D01*
X83544028Y-94917105D01*
X83415357Y-94878073D01*
X86840000Y-94878073D01*
X86964482Y-94865813D01*
X87084180Y-94829503D01*
X87194494Y-94770538D01*
X87291185Y-94691186D01*
X87370537Y-94594495D01*
X87429502Y-94484181D01*
X87465812Y-94364483D01*
X87478072Y-94240001D01*
X87478072Y-91225000D01*
X93761928Y-91225000D01*
X93761928Y-92925000D01*
X93774188Y-93049482D01*
X93810498Y-93169180D01*
X93869463Y-93279494D01*
X93948815Y-93376185D01*
X94045506Y-93455537D01*
X94155820Y-93514502D01*
X94228380Y-93536513D01*
X94096525Y-93668368D01*
X93934010Y-93911589D01*
X93822068Y-94181842D01*
X93765000Y-94468740D01*
X93765000Y-94761260D01*
X93822068Y-95048158D01*
X93934010Y-95318411D01*
X94096525Y-95561632D01*
X94303368Y-95768475D01*
X94546589Y-95930990D01*
X94816842Y-96042932D01*
X95103740Y-96100000D01*
X95396260Y-96100000D01*
X95683158Y-96042932D01*
X95953411Y-95930990D01*
X96196632Y-95768475D01*
X96403475Y-95561632D01*
X96565990Y-95318411D01*
X96677932Y-95048158D01*
X96735000Y-94761260D01*
X96735000Y-94468740D01*
X96677932Y-94181842D01*
X96565990Y-93911589D01*
X96403475Y-93668368D01*
X96271620Y-93536513D01*
X96344180Y-93514502D01*
X96454494Y-93455537D01*
X96551185Y-93376185D01*
X96630537Y-93279494D01*
X96689502Y-93169180D01*
X96725812Y-93049482D01*
X96738072Y-92925000D01*
X96738072Y-91225000D01*
X96725812Y-91100518D01*
X96689502Y-90980820D01*
X96630537Y-90870506D01*
X96551185Y-90773815D01*
X96454494Y-90694463D01*
X96344180Y-90635498D01*
X96224482Y-90599188D01*
X96100000Y-90586928D01*
X94400000Y-90586928D01*
X94275518Y-90599188D01*
X94155820Y-90635498D01*
X94045506Y-90694463D01*
X93948815Y-90773815D01*
X93869463Y-90870506D01*
X93810498Y-90980820D01*
X93774188Y-91100518D01*
X93761928Y-91225000D01*
X87478072Y-91225000D01*
X87478072Y-90740001D01*
X87465812Y-90615519D01*
X87429502Y-90495821D01*
X87370537Y-90385507D01*
X87291185Y-90288816D01*
X87194494Y-90209464D01*
X87084180Y-90150499D01*
X86964482Y-90114189D01*
X86840000Y-90101929D01*
X83340000Y-90101929D01*
X83215518Y-90114189D01*
X83095820Y-90150499D01*
X82985506Y-90209464D01*
X82888815Y-90288816D01*
X82809463Y-90385507D01*
X82750498Y-90495821D01*
X82714188Y-90615519D01*
X82701928Y-90740001D01*
X82701928Y-94240001D01*
X82714188Y-94364483D01*
X82750498Y-94484181D01*
X82809463Y-94594495D01*
X82888815Y-94691186D01*
X82985506Y-94770538D01*
X83062131Y-94811495D01*
X82965000Y-94801929D01*
X81215000Y-94801929D01*
X80919814Y-94831002D01*
X80635972Y-94917105D01*
X80374382Y-95056928D01*
X80145097Y-95245098D01*
X79956927Y-95474383D01*
X79817104Y-95735973D01*
X79731001Y-96019815D01*
X79701928Y-96315001D01*
X71145000Y-96315001D01*
X71145000Y-94240001D01*
X76951928Y-94240001D01*
X76964188Y-94364483D01*
X77000498Y-94484181D01*
X77059463Y-94594495D01*
X77138815Y-94691186D01*
X77235506Y-94770538D01*
X77345820Y-94829503D01*
X77465518Y-94865813D01*
X77590000Y-94878073D01*
X78804250Y-94875001D01*
X78963000Y-94716251D01*
X78963000Y-92617001D01*
X79217000Y-92617001D01*
X79217000Y-94716251D01*
X79375750Y-94875001D01*
X80590000Y-94878073D01*
X80714482Y-94865813D01*
X80834180Y-94829503D01*
X80944494Y-94770538D01*
X81041185Y-94691186D01*
X81120537Y-94594495D01*
X81179502Y-94484181D01*
X81215812Y-94364483D01*
X81228072Y-94240001D01*
X81225000Y-92775751D01*
X81066250Y-92617001D01*
X79217000Y-92617001D01*
X78963000Y-92617001D01*
X77113750Y-92617001D01*
X76955000Y-92775751D01*
X76951928Y-94240001D01*
X71145000Y-94240001D01*
X71145000Y-90740001D01*
X76951928Y-90740001D01*
X76955000Y-92204251D01*
X77113750Y-92363001D01*
X78963000Y-92363001D01*
X78963000Y-90263751D01*
X79217000Y-90263751D01*
X79217000Y-92363001D01*
X81066250Y-92363001D01*
X81225000Y-92204251D01*
X81228072Y-90740001D01*
X81215812Y-90615519D01*
X81179502Y-90495821D01*
X81120537Y-90385507D01*
X81041185Y-90288816D01*
X80944494Y-90209464D01*
X80834180Y-90150499D01*
X80714482Y-90114189D01*
X80590000Y-90101929D01*
X79375750Y-90105001D01*
X79217000Y-90263751D01*
X78963000Y-90263751D01*
X78804250Y-90105001D01*
X77590000Y-90101929D01*
X77465518Y-90114189D01*
X77345820Y-90150499D01*
X77235506Y-90209464D01*
X77138815Y-90288816D01*
X77059463Y-90385507D01*
X77000498Y-90495821D01*
X76964188Y-90615519D01*
X76951928Y-90740001D01*
X71145000Y-90740001D01*
X71145000Y-85411681D01*
X94650087Y-85411681D01*
X94697554Y-85650263D01*
X94790654Y-85875000D01*
X94925809Y-86077256D01*
X95097826Y-86249258D01*
X95300093Y-86384396D01*
X95524838Y-86477477D01*
X95567391Y-86483462D01*
X95758000Y-86358731D01*
X95758000Y-85217000D01*
X96012000Y-85217000D01*
X96012000Y-86358731D01*
X96202609Y-86483462D01*
X96245162Y-86477477D01*
X96469907Y-86384396D01*
X96672174Y-86249258D01*
X96844191Y-86077256D01*
X96979346Y-85875000D01*
X97072446Y-85650263D01*
X97119913Y-85411681D01*
X96964994Y-85217000D01*
X96012000Y-85217000D01*
X95758000Y-85217000D01*
X94805006Y-85217000D01*
X94650087Y-85411681D01*
X71145000Y-85411681D01*
X71145000Y-84768319D01*
X94650087Y-84768319D01*
X94805006Y-84963000D01*
X95758000Y-84963000D01*
X95758000Y-83821269D01*
X96012000Y-83821269D01*
X96012000Y-84963000D01*
X96964994Y-84963000D01*
X97119913Y-84768319D01*
X97072446Y-84529737D01*
X96979346Y-84305000D01*
X96844191Y-84102744D01*
X96672174Y-83930742D01*
X96469907Y-83795604D01*
X96245162Y-83702523D01*
X96202609Y-83696538D01*
X96012000Y-83821269D01*
X95758000Y-83821269D01*
X95567391Y-83696538D01*
X95524838Y-83702523D01*
X95300093Y-83795604D01*
X95097826Y-83930742D01*
X94925809Y-84102744D01*
X94790654Y-84305000D01*
X94697554Y-84529737D01*
X94650087Y-84768319D01*
X71145000Y-84768319D01*
X71145000Y-82428363D01*
X97190000Y-82428363D01*
X97190000Y-82671637D01*
X97237460Y-82910236D01*
X97330557Y-83134992D01*
X97465713Y-83337267D01*
X97637733Y-83509287D01*
X97840008Y-83644443D01*
X98064764Y-83737540D01*
X98303363Y-83785000D01*
X98546637Y-83785000D01*
X98785236Y-83737540D01*
X99009992Y-83644443D01*
X99212267Y-83509287D01*
X99384287Y-83337267D01*
X99519443Y-83134992D01*
X99612540Y-82910236D01*
X99660000Y-82671637D01*
X99660000Y-82428363D01*
X99612540Y-82189764D01*
X99519443Y-81965008D01*
X99384287Y-81762733D01*
X99212267Y-81590713D01*
X99009992Y-81455557D01*
X98785236Y-81362460D01*
X98546637Y-81315000D01*
X98303363Y-81315000D01*
X98064764Y-81362460D01*
X97840008Y-81455557D01*
X97637733Y-81590713D01*
X97465713Y-81762733D01*
X97330557Y-81965008D01*
X97237460Y-82189764D01*
X97190000Y-82428363D01*
X71145000Y-82428363D01*
X71145000Y-79010000D01*
X77101928Y-79010000D01*
X77101928Y-81010000D01*
X77114188Y-81134482D01*
X77150498Y-81254180D01*
X77209463Y-81364494D01*
X77288815Y-81461185D01*
X77385506Y-81540537D01*
X77495820Y-81599502D01*
X77615518Y-81635812D01*
X77740000Y-81648072D01*
X79740000Y-81648072D01*
X79864482Y-81635812D01*
X79984180Y-81599502D01*
X80094494Y-81540537D01*
X80191185Y-81461185D01*
X80270537Y-81364494D01*
X80329502Y-81254180D01*
X80365812Y-81134482D01*
X80378072Y-81010000D01*
X80378072Y-79848967D01*
X84705000Y-79848967D01*
X84705000Y-80171033D01*
X84767832Y-80486912D01*
X84891082Y-80784463D01*
X85070013Y-81052252D01*
X85297748Y-81279987D01*
X85565537Y-81458918D01*
X85863088Y-81582168D01*
X86178967Y-81645000D01*
X86501033Y-81645000D01*
X86816912Y-81582168D01*
X87114463Y-81458918D01*
X87382252Y-81279987D01*
X87609987Y-81052252D01*
X87788918Y-80784463D01*
X87912168Y-80486912D01*
X87975000Y-80171033D01*
X87975000Y-79888363D01*
X94650000Y-79888363D01*
X94650000Y-80131637D01*
X94697460Y-80370236D01*
X94790557Y-80594992D01*
X94925713Y-80797267D01*
X95097733Y-80969287D01*
X95300008Y-81104443D01*
X95524764Y-81197540D01*
X95763363Y-81245000D01*
X96006637Y-81245000D01*
X96245236Y-81197540D01*
X96469992Y-81104443D01*
X96672267Y-80969287D01*
X96844287Y-80797267D01*
X96979443Y-80594992D01*
X97072540Y-80370236D01*
X97120000Y-80131637D01*
X97120000Y-79888363D01*
X97072540Y-79649764D01*
X96979443Y-79425008D01*
X96844287Y-79222733D01*
X96672267Y-79050713D01*
X96469992Y-78915557D01*
X96245236Y-78822460D01*
X96006637Y-78775000D01*
X95763363Y-78775000D01*
X95524764Y-78822460D01*
X95300008Y-78915557D01*
X95097733Y-79050713D01*
X94925713Y-79222733D01*
X94790557Y-79425008D01*
X94697460Y-79649764D01*
X94650000Y-79888363D01*
X87975000Y-79888363D01*
X87975000Y-79848967D01*
X87912168Y-79533088D01*
X87788918Y-79235537D01*
X87609987Y-78967748D01*
X87382252Y-78740013D01*
X87114463Y-78561082D01*
X86816912Y-78437832D01*
X86501033Y-78375000D01*
X86178967Y-78375000D01*
X85863088Y-78437832D01*
X85565537Y-78561082D01*
X85297748Y-78740013D01*
X85070013Y-78967748D01*
X84891082Y-79235537D01*
X84767832Y-79533088D01*
X84705000Y-79848967D01*
X80378072Y-79848967D01*
X80378072Y-79010000D01*
X80365812Y-78885518D01*
X80329502Y-78765820D01*
X80270537Y-78655506D01*
X80191185Y-78558815D01*
X80094494Y-78479463D01*
X79984180Y-78420498D01*
X79864482Y-78384188D01*
X79740000Y-78371928D01*
X77740000Y-78371928D01*
X77615518Y-78384188D01*
X77495820Y-78420498D01*
X77385506Y-78479463D01*
X77288815Y-78558815D01*
X77209463Y-78655506D01*
X77150498Y-78765820D01*
X77114188Y-78885518D01*
X77101928Y-79010000D01*
X71145000Y-79010000D01*
X71145000Y-74074872D01*
X101270000Y-74074872D01*
X101270000Y-74515128D01*
X101355890Y-74946925D01*
X101524369Y-75353669D01*
X101768962Y-75719729D01*
X102080271Y-76031038D01*
X102446331Y-76275631D01*
X102853075Y-76444110D01*
X103284872Y-76530000D01*
X103725128Y-76530000D01*
X104156925Y-76444110D01*
X104563669Y-76275631D01*
X104929729Y-76031038D01*
X105241038Y-75719729D01*
X105485631Y-75353669D01*
X105654110Y-74946925D01*
X105740000Y-74515128D01*
X105740000Y-74074872D01*
X105654110Y-73643075D01*
X105485631Y-73236331D01*
X105241038Y-72870271D01*
X104929729Y-72558962D01*
X104563669Y-72314369D01*
X104156925Y-72145890D01*
X103725128Y-72060000D01*
X103284872Y-72060000D01*
X102853075Y-72145890D01*
X102446331Y-72314369D01*
X102080271Y-72558962D01*
X101768962Y-72870271D01*
X101524369Y-73236331D01*
X101355890Y-73643075D01*
X101270000Y-74074872D01*
X71145000Y-74074872D01*
X71145000Y-71145000D01*
X106655001Y-71145000D01*
X106655000Y-116180000D01*
%TA.AperFunction,Conductor*%
D23*
G36*
X106655000Y-116180000D02*
G01*
X71145000Y-116180000D01*
X71145000Y-112809872D01*
X72060000Y-112809872D01*
X72060000Y-113250128D01*
X72145890Y-113681925D01*
X72314369Y-114088669D01*
X72558962Y-114454729D01*
X72870271Y-114766038D01*
X73236331Y-115010631D01*
X73643075Y-115179110D01*
X74074872Y-115265000D01*
X74515128Y-115265000D01*
X74946925Y-115179110D01*
X75353669Y-115010631D01*
X75719729Y-114766038D01*
X76031038Y-114454729D01*
X76275631Y-114088669D01*
X76444110Y-113681925D01*
X76530000Y-113250128D01*
X76530000Y-112809872D01*
X76444110Y-112378075D01*
X76376259Y-112214268D01*
X85795000Y-112214268D01*
X85795000Y-112575732D01*
X85865518Y-112930250D01*
X86003844Y-113264199D01*
X86204662Y-113564744D01*
X86460256Y-113820338D01*
X86760801Y-114021156D01*
X87094750Y-114159482D01*
X87449268Y-114230000D01*
X87810732Y-114230000D01*
X88165250Y-114159482D01*
X88499199Y-114021156D01*
X88799744Y-113820338D01*
X89055338Y-113564744D01*
X89256156Y-113264199D01*
X89394482Y-112930250D01*
X89465000Y-112575732D01*
X89465000Y-112214268D01*
X98495000Y-112214268D01*
X98495000Y-112575732D01*
X98565518Y-112930250D01*
X98703844Y-113264199D01*
X98904662Y-113564744D01*
X99160256Y-113820338D01*
X99460801Y-114021156D01*
X99794750Y-114159482D01*
X100149268Y-114230000D01*
X100510732Y-114230000D01*
X100865250Y-114159482D01*
X101199199Y-114021156D01*
X101499744Y-113820338D01*
X101755338Y-113564744D01*
X101956156Y-113264199D01*
X102094482Y-112930250D01*
X102165000Y-112575732D01*
X102165000Y-112214268D01*
X102094482Y-111859750D01*
X101956156Y-111525801D01*
X101755338Y-111225256D01*
X101499744Y-110969662D01*
X101199199Y-110768844D01*
X100865250Y-110630518D01*
X100510732Y-110560000D01*
X100149268Y-110560000D01*
X99794750Y-110630518D01*
X99460801Y-110768844D01*
X99160256Y-110969662D01*
X98904662Y-111225256D01*
X98703844Y-111525801D01*
X98565518Y-111859750D01*
X98495000Y-112214268D01*
X89465000Y-112214268D01*
X89394482Y-111859750D01*
X89256156Y-111525801D01*
X89055338Y-111225256D01*
X88799744Y-110969662D01*
X88499199Y-110768844D01*
X88165250Y-110630518D01*
X87810732Y-110560000D01*
X87449268Y-110560000D01*
X87094750Y-110630518D01*
X86760801Y-110768844D01*
X86460256Y-110969662D01*
X86204662Y-111225256D01*
X86003844Y-111525801D01*
X85865518Y-111859750D01*
X85795000Y-112214268D01*
X76376259Y-112214268D01*
X76275631Y-111971331D01*
X76031038Y-111605271D01*
X75719729Y-111293962D01*
X75353669Y-111049369D01*
X74946925Y-110880890D01*
X74515128Y-110795000D01*
X74074872Y-110795000D01*
X73643075Y-110880890D01*
X73236331Y-111049369D01*
X72870271Y-111293962D01*
X72558962Y-111605271D01*
X72314369Y-111971331D01*
X72145890Y-112378075D01*
X72060000Y-112809872D01*
X71145000Y-112809872D01*
X71145000Y-105680000D01*
X77101928Y-105680000D01*
X77101928Y-107680000D01*
X77114188Y-107804482D01*
X77150498Y-107924180D01*
X77209463Y-108034494D01*
X77288815Y-108131185D01*
X77385506Y-108210537D01*
X77495820Y-108269502D01*
X77615518Y-108305812D01*
X77740000Y-108318072D01*
X79740000Y-108318072D01*
X79864482Y-108305812D01*
X79984180Y-108269502D01*
X80094494Y-108210537D01*
X80191185Y-108131185D01*
X80270537Y-108034494D01*
X80329502Y-107924180D01*
X80365812Y-107804482D01*
X80378072Y-107680000D01*
X80378072Y-105680000D01*
X80365812Y-105555518D01*
X80329502Y-105435820D01*
X80270537Y-105325506D01*
X80233192Y-105280000D01*
X86226928Y-105280000D01*
X86226928Y-108080000D01*
X86239188Y-108204482D01*
X86275498Y-108324180D01*
X86334463Y-108434494D01*
X86413815Y-108531185D01*
X86510506Y-108610537D01*
X86620820Y-108669502D01*
X86740518Y-108705812D01*
X86865000Y-108718072D01*
X89665000Y-108718072D01*
X89789482Y-108705812D01*
X89909180Y-108669502D01*
X90019494Y-108610537D01*
X90116185Y-108531185D01*
X90195537Y-108434494D01*
X90254502Y-108324180D01*
X90290812Y-108204482D01*
X90303072Y-108080000D01*
X90303072Y-106479570D01*
X96390000Y-106479570D01*
X96390000Y-106880430D01*
X96468204Y-107273587D01*
X96621607Y-107643934D01*
X96844313Y-107977237D01*
X97127763Y-108260687D01*
X97461066Y-108483393D01*
X97831413Y-108636796D01*
X98224570Y-108715000D01*
X98625430Y-108715000D01*
X99018587Y-108636796D01*
X99388934Y-108483393D01*
X99722237Y-108260687D01*
X100005687Y-107977237D01*
X100228393Y-107643934D01*
X100381796Y-107273587D01*
X100460000Y-106880430D01*
X100460000Y-106479570D01*
X100381796Y-106086413D01*
X100228393Y-105716066D01*
X100005687Y-105382763D01*
X99722237Y-105099313D01*
X99388934Y-104876607D01*
X99018587Y-104723204D01*
X98625430Y-104645000D01*
X98224570Y-104645000D01*
X97831413Y-104723204D01*
X97461066Y-104876607D01*
X97127763Y-105099313D01*
X96844313Y-105382763D01*
X96621607Y-105716066D01*
X96468204Y-106086413D01*
X96390000Y-106479570D01*
X90303072Y-106479570D01*
X90303072Y-105280000D01*
X90290812Y-105155518D01*
X90254502Y-105035820D01*
X90195537Y-104925506D01*
X90116185Y-104828815D01*
X90019494Y-104749463D01*
X89909180Y-104690498D01*
X89789482Y-104654188D01*
X89665000Y-104641928D01*
X86865000Y-104641928D01*
X86740518Y-104654188D01*
X86620820Y-104690498D01*
X86510506Y-104749463D01*
X86413815Y-104828815D01*
X86334463Y-104925506D01*
X86275498Y-105035820D01*
X86239188Y-105155518D01*
X86226928Y-105280000D01*
X80233192Y-105280000D01*
X80191185Y-105228815D01*
X80094494Y-105149463D01*
X79984180Y-105090498D01*
X79864482Y-105054188D01*
X79740000Y-105041928D01*
X77740000Y-105041928D01*
X77615518Y-105054188D01*
X77495820Y-105090498D01*
X77385506Y-105149463D01*
X77288815Y-105228815D01*
X77209463Y-105325506D01*
X77150498Y-105435820D01*
X77114188Y-105555518D01*
X77101928Y-105680000D01*
X71145000Y-105680000D01*
X71145000Y-104315413D01*
X77784192Y-104315413D01*
X77879956Y-104579814D01*
X78169571Y-104720704D01*
X78481108Y-104802384D01*
X78802595Y-104821718D01*
X79121675Y-104777961D01*
X79426088Y-104672795D01*
X79600044Y-104579814D01*
X79695808Y-104315413D01*
X78740000Y-103359605D01*
X77784192Y-104315413D01*
X71145000Y-104315413D01*
X71145000Y-103242595D01*
X77098282Y-103242595D01*
X77142039Y-103561675D01*
X77247205Y-103866088D01*
X77340186Y-104040044D01*
X77604587Y-104135808D01*
X78560395Y-103180000D01*
X78919605Y-103180000D01*
X79875413Y-104135808D01*
X80139814Y-104040044D01*
X80280704Y-103750429D01*
X80362384Y-103438892D01*
X80381718Y-103117405D01*
X80337961Y-102798325D01*
X80232795Y-102493912D01*
X80139814Y-102319956D01*
X79875413Y-102224192D01*
X78919605Y-103180000D01*
X78560395Y-103180000D01*
X77604587Y-102224192D01*
X77340186Y-102319956D01*
X77199296Y-102609571D01*
X77117616Y-102921108D01*
X77098282Y-103242595D01*
X71145000Y-103242595D01*
X71145000Y-102044587D01*
X77784192Y-102044587D01*
X78740000Y-103000395D01*
X79695808Y-102044587D01*
X79600044Y-101780186D01*
X79310429Y-101639296D01*
X78998892Y-101557616D01*
X78677405Y-101538282D01*
X78358325Y-101582039D01*
X78053912Y-101687205D01*
X77879956Y-101780186D01*
X77784192Y-102044587D01*
X71145000Y-102044587D01*
X71145000Y-101457680D01*
X86820000Y-101457680D01*
X86820000Y-101742320D01*
X86875530Y-102021491D01*
X86984457Y-102284464D01*
X87142595Y-102521134D01*
X87343866Y-102722405D01*
X87580536Y-102880543D01*
X87843509Y-102989470D01*
X88122680Y-103045000D01*
X88407320Y-103045000D01*
X88686491Y-102989470D01*
X88949464Y-102880543D01*
X89186134Y-102722405D01*
X89308696Y-102599843D01*
X92444762Y-102599843D01*
X92517556Y-102844832D01*
X92774773Y-102966733D01*
X93050829Y-103036110D01*
X93335115Y-103050298D01*
X93616706Y-103008752D01*
X93884783Y-102913068D01*
X94012444Y-102844832D01*
X94085238Y-102599843D01*
X93265000Y-101779605D01*
X92444762Y-102599843D01*
X89308696Y-102599843D01*
X89387405Y-102521134D01*
X89545543Y-102284464D01*
X89654470Y-102021491D01*
X89710000Y-101742320D01*
X89710000Y-101670115D01*
X91814702Y-101670115D01*
X91856248Y-101951706D01*
X91951932Y-102219783D01*
X92020168Y-102347444D01*
X92265157Y-102420238D01*
X93085395Y-101600000D01*
X93444605Y-101600000D01*
X94264843Y-102420238D01*
X94509832Y-102347444D01*
X94631733Y-102090227D01*
X94701110Y-101814171D01*
X94715298Y-101529885D01*
X94673752Y-101248294D01*
X94578068Y-100980217D01*
X94509832Y-100852556D01*
X94264843Y-100779762D01*
X93444605Y-101600000D01*
X93085395Y-101600000D01*
X92265157Y-100779762D01*
X92020168Y-100852556D01*
X91898267Y-101109773D01*
X91828890Y-101385829D01*
X91814702Y-101670115D01*
X89710000Y-101670115D01*
X89710000Y-101457680D01*
X89654470Y-101178509D01*
X89545543Y-100915536D01*
X89387405Y-100678866D01*
X89308696Y-100600157D01*
X92444762Y-100600157D01*
X93265000Y-101420395D01*
X94085238Y-100600157D01*
X94012444Y-100355168D01*
X93755227Y-100233267D01*
X93479171Y-100163890D01*
X93194885Y-100149702D01*
X92913294Y-100191248D01*
X92645217Y-100286932D01*
X92517556Y-100355168D01*
X92444762Y-100600157D01*
X89308696Y-100600157D01*
X89186134Y-100477595D01*
X88949464Y-100319457D01*
X88686491Y-100210530D01*
X88407320Y-100155000D01*
X88122680Y-100155000D01*
X87843509Y-100210530D01*
X87580536Y-100319457D01*
X87343866Y-100477595D01*
X87142595Y-100678866D01*
X86984457Y-100915536D01*
X86875530Y-101178509D01*
X86820000Y-101457680D01*
X71145000Y-101457680D01*
X71145000Y-100099843D01*
X89944762Y-100099843D01*
X90017556Y-100344832D01*
X90274773Y-100466733D01*
X90550829Y-100536110D01*
X90835115Y-100550298D01*
X91116706Y-100508752D01*
X91384783Y-100413068D01*
X91512444Y-100344832D01*
X91585238Y-100099843D01*
X90765000Y-99279605D01*
X89944762Y-100099843D01*
X71145000Y-100099843D01*
X71145000Y-96315001D01*
X79701928Y-96315001D01*
X79701928Y-98065001D01*
X79731001Y-98360187D01*
X79817104Y-98644029D01*
X79956927Y-98905619D01*
X80145097Y-99134904D01*
X80374382Y-99323074D01*
X80635972Y-99462897D01*
X80919814Y-99549000D01*
X81215000Y-99578073D01*
X82965000Y-99578073D01*
X83260186Y-99549000D01*
X83544028Y-99462897D01*
X83805618Y-99323074D01*
X83991998Y-99170115D01*
X89314702Y-99170115D01*
X89356248Y-99451706D01*
X89451932Y-99719783D01*
X89520168Y-99847444D01*
X89765157Y-99920238D01*
X90585395Y-99100000D01*
X90944605Y-99100000D01*
X91764843Y-99920238D01*
X92009832Y-99847444D01*
X92131733Y-99590227D01*
X92201110Y-99314171D01*
X92215298Y-99029885D01*
X92173752Y-98748294D01*
X92078068Y-98480217D01*
X92009832Y-98352556D01*
X91764843Y-98279762D01*
X90944605Y-99100000D01*
X90585395Y-99100000D01*
X89765157Y-98279762D01*
X89520168Y-98352556D01*
X89398267Y-98609773D01*
X89328890Y-98885829D01*
X89314702Y-99170115D01*
X83991998Y-99170115D01*
X84034903Y-99134904D01*
X84223073Y-98905619D01*
X84362896Y-98644029D01*
X84448999Y-98360187D01*
X84474609Y-98100157D01*
X89944762Y-98100157D01*
X90765000Y-98920395D01*
X91585238Y-98100157D01*
X91512444Y-97855168D01*
X91255227Y-97733267D01*
X90979171Y-97663890D01*
X90694885Y-97649702D01*
X90413294Y-97691248D01*
X90145217Y-97786932D01*
X90017556Y-97855168D01*
X89944762Y-98100157D01*
X84474609Y-98100157D01*
X84478072Y-98065001D01*
X84478072Y-96315001D01*
X84448999Y-96019815D01*
X84362896Y-95735973D01*
X84223073Y-95474383D01*
X84034903Y-95245098D01*
X83805618Y-95056928D01*
X83544028Y-94917105D01*
X83415357Y-94878073D01*
X86840000Y-94878073D01*
X86964482Y-94865813D01*
X87084180Y-94829503D01*
X87194494Y-94770538D01*
X87291185Y-94691186D01*
X87370537Y-94594495D01*
X87429502Y-94484181D01*
X87465812Y-94364483D01*
X87478072Y-94240001D01*
X87478072Y-91225000D01*
X93761928Y-91225000D01*
X93761928Y-92925000D01*
X93774188Y-93049482D01*
X93810498Y-93169180D01*
X93869463Y-93279494D01*
X93948815Y-93376185D01*
X94045506Y-93455537D01*
X94155820Y-93514502D01*
X94228380Y-93536513D01*
X94096525Y-93668368D01*
X93934010Y-93911589D01*
X93822068Y-94181842D01*
X93765000Y-94468740D01*
X93765000Y-94761260D01*
X93822068Y-95048158D01*
X93934010Y-95318411D01*
X94096525Y-95561632D01*
X94303368Y-95768475D01*
X94546589Y-95930990D01*
X94816842Y-96042932D01*
X95103740Y-96100000D01*
X95396260Y-96100000D01*
X95683158Y-96042932D01*
X95953411Y-95930990D01*
X96196632Y-95768475D01*
X96403475Y-95561632D01*
X96565990Y-95318411D01*
X96677932Y-95048158D01*
X96735000Y-94761260D01*
X96735000Y-94468740D01*
X96677932Y-94181842D01*
X96565990Y-93911589D01*
X96403475Y-93668368D01*
X96271620Y-93536513D01*
X96344180Y-93514502D01*
X96454494Y-93455537D01*
X96551185Y-93376185D01*
X96630537Y-93279494D01*
X96689502Y-93169180D01*
X96725812Y-93049482D01*
X96738072Y-92925000D01*
X96738072Y-91225000D01*
X96725812Y-91100518D01*
X96689502Y-90980820D01*
X96630537Y-90870506D01*
X96551185Y-90773815D01*
X96454494Y-90694463D01*
X96344180Y-90635498D01*
X96224482Y-90599188D01*
X96100000Y-90586928D01*
X94400000Y-90586928D01*
X94275518Y-90599188D01*
X94155820Y-90635498D01*
X94045506Y-90694463D01*
X93948815Y-90773815D01*
X93869463Y-90870506D01*
X93810498Y-90980820D01*
X93774188Y-91100518D01*
X93761928Y-91225000D01*
X87478072Y-91225000D01*
X87478072Y-90740001D01*
X87465812Y-90615519D01*
X87429502Y-90495821D01*
X87370537Y-90385507D01*
X87291185Y-90288816D01*
X87194494Y-90209464D01*
X87084180Y-90150499D01*
X86964482Y-90114189D01*
X86840000Y-90101929D01*
X83340000Y-90101929D01*
X83215518Y-90114189D01*
X83095820Y-90150499D01*
X82985506Y-90209464D01*
X82888815Y-90288816D01*
X82809463Y-90385507D01*
X82750498Y-90495821D01*
X82714188Y-90615519D01*
X82701928Y-90740001D01*
X82701928Y-94240001D01*
X82714188Y-94364483D01*
X82750498Y-94484181D01*
X82809463Y-94594495D01*
X82888815Y-94691186D01*
X82985506Y-94770538D01*
X83062131Y-94811495D01*
X82965000Y-94801929D01*
X81215000Y-94801929D01*
X80919814Y-94831002D01*
X80635972Y-94917105D01*
X80374382Y-95056928D01*
X80145097Y-95245098D01*
X79956927Y-95474383D01*
X79817104Y-95735973D01*
X79731001Y-96019815D01*
X79701928Y-96315001D01*
X71145000Y-96315001D01*
X71145000Y-94240001D01*
X76951928Y-94240001D01*
X76964188Y-94364483D01*
X77000498Y-94484181D01*
X77059463Y-94594495D01*
X77138815Y-94691186D01*
X77235506Y-94770538D01*
X77345820Y-94829503D01*
X77465518Y-94865813D01*
X77590000Y-94878073D01*
X78804250Y-94875001D01*
X78963000Y-94716251D01*
X78963000Y-92617001D01*
X79217000Y-92617001D01*
X79217000Y-94716251D01*
X79375750Y-94875001D01*
X80590000Y-94878073D01*
X80714482Y-94865813D01*
X80834180Y-94829503D01*
X80944494Y-94770538D01*
X81041185Y-94691186D01*
X81120537Y-94594495D01*
X81179502Y-94484181D01*
X81215812Y-94364483D01*
X81228072Y-94240001D01*
X81225000Y-92775751D01*
X81066250Y-92617001D01*
X79217000Y-92617001D01*
X78963000Y-92617001D01*
X77113750Y-92617001D01*
X76955000Y-92775751D01*
X76951928Y-94240001D01*
X71145000Y-94240001D01*
X71145000Y-90740001D01*
X76951928Y-90740001D01*
X76955000Y-92204251D01*
X77113750Y-92363001D01*
X78963000Y-92363001D01*
X78963000Y-90263751D01*
X79217000Y-90263751D01*
X79217000Y-92363001D01*
X81066250Y-92363001D01*
X81225000Y-92204251D01*
X81228072Y-90740001D01*
X81215812Y-90615519D01*
X81179502Y-90495821D01*
X81120537Y-90385507D01*
X81041185Y-90288816D01*
X80944494Y-90209464D01*
X80834180Y-90150499D01*
X80714482Y-90114189D01*
X80590000Y-90101929D01*
X79375750Y-90105001D01*
X79217000Y-90263751D01*
X78963000Y-90263751D01*
X78804250Y-90105001D01*
X77590000Y-90101929D01*
X77465518Y-90114189D01*
X77345820Y-90150499D01*
X77235506Y-90209464D01*
X77138815Y-90288816D01*
X77059463Y-90385507D01*
X77000498Y-90495821D01*
X76964188Y-90615519D01*
X76951928Y-90740001D01*
X71145000Y-90740001D01*
X71145000Y-85411681D01*
X94650087Y-85411681D01*
X94697554Y-85650263D01*
X94790654Y-85875000D01*
X94925809Y-86077256D01*
X95097826Y-86249258D01*
X95300093Y-86384396D01*
X95524838Y-86477477D01*
X95567391Y-86483462D01*
X95758000Y-86358731D01*
X95758000Y-85217000D01*
X96012000Y-85217000D01*
X96012000Y-86358731D01*
X96202609Y-86483462D01*
X96245162Y-86477477D01*
X96469907Y-86384396D01*
X96672174Y-86249258D01*
X96844191Y-86077256D01*
X96979346Y-85875000D01*
X97072446Y-85650263D01*
X97119913Y-85411681D01*
X96964994Y-85217000D01*
X96012000Y-85217000D01*
X95758000Y-85217000D01*
X94805006Y-85217000D01*
X94650087Y-85411681D01*
X71145000Y-85411681D01*
X71145000Y-84768319D01*
X94650087Y-84768319D01*
X94805006Y-84963000D01*
X95758000Y-84963000D01*
X95758000Y-83821269D01*
X96012000Y-83821269D01*
X96012000Y-84963000D01*
X96964994Y-84963000D01*
X97119913Y-84768319D01*
X97072446Y-84529737D01*
X96979346Y-84305000D01*
X96844191Y-84102744D01*
X96672174Y-83930742D01*
X96469907Y-83795604D01*
X96245162Y-83702523D01*
X96202609Y-83696538D01*
X96012000Y-83821269D01*
X95758000Y-83821269D01*
X95567391Y-83696538D01*
X95524838Y-83702523D01*
X95300093Y-83795604D01*
X95097826Y-83930742D01*
X94925809Y-84102744D01*
X94790654Y-84305000D01*
X94697554Y-84529737D01*
X94650087Y-84768319D01*
X71145000Y-84768319D01*
X71145000Y-82428363D01*
X97190000Y-82428363D01*
X97190000Y-82671637D01*
X97237460Y-82910236D01*
X97330557Y-83134992D01*
X97465713Y-83337267D01*
X97637733Y-83509287D01*
X97840008Y-83644443D01*
X98064764Y-83737540D01*
X98303363Y-83785000D01*
X98546637Y-83785000D01*
X98785236Y-83737540D01*
X99009992Y-83644443D01*
X99212267Y-83509287D01*
X99384287Y-83337267D01*
X99519443Y-83134992D01*
X99612540Y-82910236D01*
X99660000Y-82671637D01*
X99660000Y-82428363D01*
X99612540Y-82189764D01*
X99519443Y-81965008D01*
X99384287Y-81762733D01*
X99212267Y-81590713D01*
X99009992Y-81455557D01*
X98785236Y-81362460D01*
X98546637Y-81315000D01*
X98303363Y-81315000D01*
X98064764Y-81362460D01*
X97840008Y-81455557D01*
X97637733Y-81590713D01*
X97465713Y-81762733D01*
X97330557Y-81965008D01*
X97237460Y-82189764D01*
X97190000Y-82428363D01*
X71145000Y-82428363D01*
X71145000Y-79010000D01*
X77101928Y-79010000D01*
X77101928Y-81010000D01*
X77114188Y-81134482D01*
X77150498Y-81254180D01*
X77209463Y-81364494D01*
X77288815Y-81461185D01*
X77385506Y-81540537D01*
X77495820Y-81599502D01*
X77615518Y-81635812D01*
X77740000Y-81648072D01*
X79740000Y-81648072D01*
X79864482Y-81635812D01*
X79984180Y-81599502D01*
X80094494Y-81540537D01*
X80191185Y-81461185D01*
X80270537Y-81364494D01*
X80329502Y-81254180D01*
X80365812Y-81134482D01*
X80378072Y-81010000D01*
X80378072Y-79848967D01*
X84705000Y-79848967D01*
X84705000Y-80171033D01*
X84767832Y-80486912D01*
X84891082Y-80784463D01*
X85070013Y-81052252D01*
X85297748Y-81279987D01*
X85565537Y-81458918D01*
X85863088Y-81582168D01*
X86178967Y-81645000D01*
X86501033Y-81645000D01*
X86816912Y-81582168D01*
X87114463Y-81458918D01*
X87382252Y-81279987D01*
X87609987Y-81052252D01*
X87788918Y-80784463D01*
X87912168Y-80486912D01*
X87975000Y-80171033D01*
X87975000Y-79888363D01*
X94650000Y-79888363D01*
X94650000Y-80131637D01*
X94697460Y-80370236D01*
X94790557Y-80594992D01*
X94925713Y-80797267D01*
X95097733Y-80969287D01*
X95300008Y-81104443D01*
X95524764Y-81197540D01*
X95763363Y-81245000D01*
X96006637Y-81245000D01*
X96245236Y-81197540D01*
X96469992Y-81104443D01*
X96672267Y-80969287D01*
X96844287Y-80797267D01*
X96979443Y-80594992D01*
X97072540Y-80370236D01*
X97120000Y-80131637D01*
X97120000Y-79888363D01*
X97072540Y-79649764D01*
X96979443Y-79425008D01*
X96844287Y-79222733D01*
X96672267Y-79050713D01*
X96469992Y-78915557D01*
X96245236Y-78822460D01*
X96006637Y-78775000D01*
X95763363Y-78775000D01*
X95524764Y-78822460D01*
X95300008Y-78915557D01*
X95097733Y-79050713D01*
X94925713Y-79222733D01*
X94790557Y-79425008D01*
X94697460Y-79649764D01*
X94650000Y-79888363D01*
X87975000Y-79888363D01*
X87975000Y-79848967D01*
X87912168Y-79533088D01*
X87788918Y-79235537D01*
X87609987Y-78967748D01*
X87382252Y-78740013D01*
X87114463Y-78561082D01*
X86816912Y-78437832D01*
X86501033Y-78375000D01*
X86178967Y-78375000D01*
X85863088Y-78437832D01*
X85565537Y-78561082D01*
X85297748Y-78740013D01*
X85070013Y-78967748D01*
X84891082Y-79235537D01*
X84767832Y-79533088D01*
X84705000Y-79848967D01*
X80378072Y-79848967D01*
X80378072Y-79010000D01*
X80365812Y-78885518D01*
X80329502Y-78765820D01*
X80270537Y-78655506D01*
X80191185Y-78558815D01*
X80094494Y-78479463D01*
X79984180Y-78420498D01*
X79864482Y-78384188D01*
X79740000Y-78371928D01*
X77740000Y-78371928D01*
X77615518Y-78384188D01*
X77495820Y-78420498D01*
X77385506Y-78479463D01*
X77288815Y-78558815D01*
X77209463Y-78655506D01*
X77150498Y-78765820D01*
X77114188Y-78885518D01*
X77101928Y-79010000D01*
X71145000Y-79010000D01*
X71145000Y-74074872D01*
X101270000Y-74074872D01*
X101270000Y-74515128D01*
X101355890Y-74946925D01*
X101524369Y-75353669D01*
X101768962Y-75719729D01*
X102080271Y-76031038D01*
X102446331Y-76275631D01*
X102853075Y-76444110D01*
X103284872Y-76530000D01*
X103725128Y-76530000D01*
X104156925Y-76444110D01*
X104563669Y-76275631D01*
X104929729Y-76031038D01*
X105241038Y-75719729D01*
X105485631Y-75353669D01*
X105654110Y-74946925D01*
X105740000Y-74515128D01*
X105740000Y-74074872D01*
X105654110Y-73643075D01*
X105485631Y-73236331D01*
X105241038Y-72870271D01*
X104929729Y-72558962D01*
X104563669Y-72314369D01*
X104156925Y-72145890D01*
X103725128Y-72060000D01*
X103284872Y-72060000D01*
X102853075Y-72145890D01*
X102446331Y-72314369D01*
X102080271Y-72558962D01*
X101768962Y-72870271D01*
X101524369Y-73236331D01*
X101355890Y-73643075D01*
X101270000Y-74074872D01*
X71145000Y-74074872D01*
X71145000Y-71145000D01*
X106655001Y-71145000D01*
X106655000Y-116180000D01*
G37*
%TD.AperFunction*%
%TD*%
M02*
