%TF.GenerationSoftware,KiCad,Pcbnew,(5.1.10)-1*%
%TF.CreationDate,2021-10-26T01:17:56+07:00*%
%TF.ProjectId,first,66697273-742e-46b6-9963-61645f706362,rev?*%
%TF.SameCoordinates,Original*%
%TF.FileFunction,Legend,Top*%
%TF.FilePolarity,Positive*%
%FSLAX46Y46*%
G04 Gerber Fmt 4.6, Leading zero omitted, Abs format (unit mm)*
G04 Created by KiCad (PCBNEW (5.1.10)-1) date 2021-10-26 01:17:56*
%MOMM*%
%LPD*%
G01*
G04 APERTURE LIST*
%ADD10C,0.125000*%
%ADD11C,0.120000*%
%ADD12C,0.150000*%
G04 APERTURE END LIST*
D10*
X95214047Y-72551785D02*
X95380714Y-72551785D01*
X95380714Y-72813690D02*
X95380714Y-72313690D01*
X95142619Y-72313690D01*
X94952142Y-72813690D02*
X94952142Y-72480357D01*
X94952142Y-72313690D02*
X94975952Y-72337500D01*
X94952142Y-72361309D01*
X94928333Y-72337500D01*
X94952142Y-72313690D01*
X94952142Y-72361309D01*
X94714047Y-72813690D02*
X94714047Y-72480357D01*
X94714047Y-72575595D02*
X94690238Y-72527976D01*
X94666428Y-72504166D01*
X94618809Y-72480357D01*
X94571190Y-72480357D01*
X94214047Y-72789880D02*
X94261666Y-72813690D01*
X94356904Y-72813690D01*
X94404523Y-72789880D01*
X94428333Y-72742261D01*
X94428333Y-72551785D01*
X94404523Y-72504166D01*
X94356904Y-72480357D01*
X94261666Y-72480357D01*
X94214047Y-72504166D01*
X94190238Y-72551785D01*
X94190238Y-72599404D01*
X94428333Y-72647023D01*
X93618809Y-72789880D02*
X93547380Y-72813690D01*
X93428333Y-72813690D01*
X93380714Y-72789880D01*
X93356904Y-72766071D01*
X93333095Y-72718452D01*
X93333095Y-72670833D01*
X93356904Y-72623214D01*
X93380714Y-72599404D01*
X93428333Y-72575595D01*
X93523571Y-72551785D01*
X93571190Y-72527976D01*
X93595000Y-72504166D01*
X93618809Y-72456547D01*
X93618809Y-72408928D01*
X93595000Y-72361309D01*
X93571190Y-72337500D01*
X93523571Y-72313690D01*
X93404523Y-72313690D01*
X93333095Y-72337500D01*
X92928333Y-72789880D02*
X92975952Y-72813690D01*
X93071190Y-72813690D01*
X93118809Y-72789880D01*
X93142619Y-72742261D01*
X93142619Y-72551785D01*
X93118809Y-72504166D01*
X93071190Y-72480357D01*
X92975952Y-72480357D01*
X92928333Y-72504166D01*
X92904523Y-72551785D01*
X92904523Y-72599404D01*
X93142619Y-72647023D01*
X92690238Y-72480357D02*
X92690238Y-72813690D01*
X92690238Y-72527976D02*
X92666428Y-72504166D01*
X92618809Y-72480357D01*
X92547380Y-72480357D01*
X92499761Y-72504166D01*
X92475952Y-72551785D01*
X92475952Y-72813690D01*
X92261666Y-72789880D02*
X92214047Y-72813690D01*
X92118809Y-72813690D01*
X92071190Y-72789880D01*
X92047380Y-72742261D01*
X92047380Y-72718452D01*
X92071190Y-72670833D01*
X92118809Y-72647023D01*
X92190238Y-72647023D01*
X92237857Y-72623214D01*
X92261666Y-72575595D01*
X92261666Y-72551785D01*
X92237857Y-72504166D01*
X92190238Y-72480357D01*
X92118809Y-72480357D01*
X92071190Y-72504166D01*
X91761666Y-72813690D02*
X91809285Y-72789880D01*
X91833095Y-72766071D01*
X91856904Y-72718452D01*
X91856904Y-72575595D01*
X91833095Y-72527976D01*
X91809285Y-72504166D01*
X91761666Y-72480357D01*
X91690238Y-72480357D01*
X91642619Y-72504166D01*
X91618809Y-72527976D01*
X91595000Y-72575595D01*
X91595000Y-72718452D01*
X91618809Y-72766071D01*
X91642619Y-72789880D01*
X91690238Y-72813690D01*
X91761666Y-72813690D01*
X91380714Y-72813690D02*
X91380714Y-72480357D01*
X91380714Y-72575595D02*
X91356904Y-72527976D01*
X91333095Y-72504166D01*
X91285476Y-72480357D01*
X91237857Y-72480357D01*
X95523571Y-73688690D02*
X95523571Y-73188690D01*
X95404523Y-73188690D01*
X95333095Y-73212500D01*
X95285476Y-73260119D01*
X95261666Y-73307738D01*
X95237857Y-73402976D01*
X95237857Y-73474404D01*
X95261666Y-73569642D01*
X95285476Y-73617261D01*
X95333095Y-73664880D01*
X95404523Y-73688690D01*
X95523571Y-73688690D01*
X95071190Y-73188690D02*
X94952142Y-73688690D01*
X94856904Y-73331547D01*
X94761666Y-73688690D01*
X94642619Y-73188690D01*
X94452142Y-73688690D02*
X94452142Y-73188690D01*
X94261666Y-73188690D01*
X94214047Y-73212500D01*
X94190238Y-73236309D01*
X94166428Y-73283928D01*
X94166428Y-73355357D01*
X94190238Y-73402976D01*
X94214047Y-73426785D01*
X94261666Y-73450595D01*
X94452142Y-73450595D01*
X93571190Y-73688690D02*
X93571190Y-73188690D01*
X93380714Y-73188690D01*
X93333095Y-73212500D01*
X93309285Y-73236309D01*
X93285476Y-73283928D01*
X93285476Y-73355357D01*
X93309285Y-73402976D01*
X93333095Y-73426785D01*
X93380714Y-73450595D01*
X93571190Y-73450595D01*
X93071190Y-73688690D02*
X93071190Y-73355357D01*
X93071190Y-73450595D02*
X93047380Y-73402976D01*
X93023571Y-73379166D01*
X92975952Y-73355357D01*
X92928333Y-73355357D01*
X92690238Y-73688690D02*
X92737857Y-73664880D01*
X92761666Y-73641071D01*
X92785476Y-73593452D01*
X92785476Y-73450595D01*
X92761666Y-73402976D01*
X92737857Y-73379166D01*
X92690238Y-73355357D01*
X92618809Y-73355357D01*
X92571190Y-73379166D01*
X92547380Y-73402976D01*
X92523571Y-73450595D01*
X92523571Y-73593452D01*
X92547380Y-73641071D01*
X92571190Y-73664880D01*
X92618809Y-73688690D01*
X92690238Y-73688690D01*
X92309285Y-73355357D02*
X92309285Y-73783928D01*
X92333095Y-73831547D01*
X92380714Y-73855357D01*
X92404523Y-73855357D01*
X92309285Y-73188690D02*
X92333095Y-73212500D01*
X92309285Y-73236309D01*
X92285476Y-73212500D01*
X92309285Y-73188690D01*
X92309285Y-73236309D01*
X91880714Y-73664880D02*
X91928333Y-73688690D01*
X92023571Y-73688690D01*
X92071190Y-73664880D01*
X92095000Y-73617261D01*
X92095000Y-73426785D01*
X92071190Y-73379166D01*
X92023571Y-73355357D01*
X91928333Y-73355357D01*
X91880714Y-73379166D01*
X91856904Y-73426785D01*
X91856904Y-73474404D01*
X92095000Y-73522023D01*
X91428333Y-73664880D02*
X91475952Y-73688690D01*
X91571190Y-73688690D01*
X91618809Y-73664880D01*
X91642619Y-73641071D01*
X91666428Y-73593452D01*
X91666428Y-73450595D01*
X91642619Y-73402976D01*
X91618809Y-73379166D01*
X91571190Y-73355357D01*
X91475952Y-73355357D01*
X91428333Y-73379166D01*
X91285476Y-73355357D02*
X91095000Y-73355357D01*
X91214047Y-73188690D02*
X91214047Y-73617261D01*
X91190238Y-73664880D01*
X91142619Y-73688690D01*
X91095000Y-73688690D01*
D11*
%TO.C,TH1*%
X96690000Y-90745000D02*
X96690000Y-95945000D01*
X96690000Y-95945000D02*
X99350000Y-95945000D01*
X99350000Y-95945000D02*
X99350000Y-90745000D01*
X99350000Y-90745000D02*
X96690000Y-90745000D01*
X99350000Y-91695000D02*
X105350000Y-91695000D01*
X105350000Y-91695000D02*
X105350000Y-92455000D01*
X105350000Y-92455000D02*
X99350000Y-92455000D01*
X99350000Y-91755000D02*
X105350000Y-91755000D01*
X99350000Y-91875000D02*
X105350000Y-91875000D01*
X99350000Y-91995000D02*
X105350000Y-91995000D01*
X99350000Y-92115000D02*
X105350000Y-92115000D01*
X99350000Y-92235000D02*
X105350000Y-92235000D01*
X99350000Y-92355000D02*
X105350000Y-92355000D01*
X96360000Y-91695000D02*
X96690000Y-91695000D01*
X96360000Y-92455000D02*
X96690000Y-92455000D01*
X96690000Y-93345000D02*
X99350000Y-93345000D01*
X99350000Y-94235000D02*
X105350000Y-94235000D01*
X105350000Y-94235000D02*
X105350000Y-94995000D01*
X105350000Y-94995000D02*
X99350000Y-94995000D01*
X96292929Y-94235000D02*
X96690000Y-94235000D01*
X96292929Y-94995000D02*
X96690000Y-94995000D01*
X93980000Y-92075000D02*
X93980000Y-90805000D01*
X93980000Y-90805000D02*
X95250000Y-90805000D01*
%TO.C,BZ1*%
X88640000Y-80010000D02*
G75*
G03*
X88640000Y-80010000I-6100000J0D01*
G01*
%TO.C,C1*%
X75365000Y-109909646D02*
X76365000Y-109909646D01*
X75865000Y-110409646D02*
X75865000Y-109409646D01*
X78141000Y-99849000D02*
X79339000Y-99849000D01*
X77878000Y-99889000D02*
X79602000Y-99889000D01*
X77678000Y-99929000D02*
X79802000Y-99929000D01*
X77510000Y-99969000D02*
X79970000Y-99969000D01*
X77362000Y-100009000D02*
X80118000Y-100009000D01*
X77230000Y-100049000D02*
X80250000Y-100049000D01*
X77110000Y-100089000D02*
X80370000Y-100089000D01*
X76998000Y-100129000D02*
X80482000Y-100129000D01*
X76894000Y-100169000D02*
X80586000Y-100169000D01*
X76796000Y-100209000D02*
X80684000Y-100209000D01*
X76703000Y-100249000D02*
X80777000Y-100249000D01*
X76615000Y-100289000D02*
X80865000Y-100289000D01*
X76531000Y-100329000D02*
X80949000Y-100329000D01*
X76451000Y-100369000D02*
X81029000Y-100369000D01*
X76375000Y-100409000D02*
X81105000Y-100409000D01*
X76301000Y-100449000D02*
X81179000Y-100449000D01*
X76230000Y-100489000D02*
X81250000Y-100489000D01*
X76161000Y-100529000D02*
X81319000Y-100529000D01*
X76095000Y-100569000D02*
X81385000Y-100569000D01*
X76031000Y-100609000D02*
X81449000Y-100609000D01*
X75970000Y-100649000D02*
X81510000Y-100649000D01*
X75910000Y-100689000D02*
X81570000Y-100689000D01*
X75851000Y-100729000D02*
X81629000Y-100729000D01*
X75795000Y-100769000D02*
X81685000Y-100769000D01*
X75740000Y-100809000D02*
X81740000Y-100809000D01*
X75686000Y-100849000D02*
X81794000Y-100849000D01*
X75634000Y-100889000D02*
X81846000Y-100889000D01*
X75584000Y-100929000D02*
X81896000Y-100929000D01*
X75534000Y-100969000D02*
X81946000Y-100969000D01*
X75486000Y-101009000D02*
X81994000Y-101009000D01*
X75439000Y-101049000D02*
X82041000Y-101049000D01*
X75393000Y-101089000D02*
X82087000Y-101089000D01*
X75348000Y-101129000D02*
X82132000Y-101129000D01*
X75304000Y-101169000D02*
X82176000Y-101169000D01*
X75262000Y-101209000D02*
X82218000Y-101209000D01*
X75220000Y-101249000D02*
X82260000Y-101249000D01*
X75179000Y-101289000D02*
X82301000Y-101289000D01*
X75139000Y-101329000D02*
X82341000Y-101329000D01*
X75100000Y-101369000D02*
X82380000Y-101369000D01*
X75061000Y-101409000D02*
X82419000Y-101409000D01*
X75024000Y-101449000D02*
X82456000Y-101449000D01*
X74987000Y-101489000D02*
X82493000Y-101489000D01*
X74951000Y-101529000D02*
X82529000Y-101529000D01*
X74916000Y-101569000D02*
X82564000Y-101569000D01*
X74882000Y-101609000D02*
X82598000Y-101609000D01*
X74848000Y-101649000D02*
X82632000Y-101649000D01*
X74815000Y-101689000D02*
X82665000Y-101689000D01*
X74783000Y-101729000D02*
X82697000Y-101729000D01*
X74751000Y-101769000D02*
X82729000Y-101769000D01*
X74720000Y-101809000D02*
X82760000Y-101809000D01*
X74690000Y-101849000D02*
X82790000Y-101849000D01*
X74660000Y-101889000D02*
X82820000Y-101889000D01*
X74630000Y-101929000D02*
X82850000Y-101929000D01*
X79981000Y-101969000D02*
X82878000Y-101969000D01*
X74602000Y-101969000D02*
X77499000Y-101969000D01*
X79981000Y-102009000D02*
X82906000Y-102009000D01*
X74574000Y-102009000D02*
X77499000Y-102009000D01*
X79981000Y-102049000D02*
X82934000Y-102049000D01*
X74546000Y-102049000D02*
X77499000Y-102049000D01*
X79981000Y-102089000D02*
X82961000Y-102089000D01*
X74519000Y-102089000D02*
X77499000Y-102089000D01*
X79981000Y-102129000D02*
X82987000Y-102129000D01*
X74493000Y-102129000D02*
X77499000Y-102129000D01*
X79981000Y-102169000D02*
X83013000Y-102169000D01*
X74467000Y-102169000D02*
X77499000Y-102169000D01*
X79981000Y-102209000D02*
X83038000Y-102209000D01*
X74442000Y-102209000D02*
X77499000Y-102209000D01*
X79981000Y-102249000D02*
X83063000Y-102249000D01*
X74417000Y-102249000D02*
X77499000Y-102249000D01*
X79981000Y-102289000D02*
X83087000Y-102289000D01*
X74393000Y-102289000D02*
X77499000Y-102289000D01*
X79981000Y-102329000D02*
X83111000Y-102329000D01*
X74369000Y-102329000D02*
X77499000Y-102329000D01*
X79981000Y-102369000D02*
X83135000Y-102369000D01*
X74345000Y-102369000D02*
X77499000Y-102369000D01*
X79981000Y-102409000D02*
X83157000Y-102409000D01*
X74323000Y-102409000D02*
X77499000Y-102409000D01*
X79981000Y-102449000D02*
X83180000Y-102449000D01*
X74300000Y-102449000D02*
X77499000Y-102449000D01*
X79981000Y-102489000D02*
X83202000Y-102489000D01*
X74278000Y-102489000D02*
X77499000Y-102489000D01*
X79981000Y-102529000D02*
X83223000Y-102529000D01*
X74257000Y-102529000D02*
X77499000Y-102529000D01*
X79981000Y-102569000D02*
X83244000Y-102569000D01*
X74236000Y-102569000D02*
X77499000Y-102569000D01*
X79981000Y-102609000D02*
X83265000Y-102609000D01*
X74215000Y-102609000D02*
X77499000Y-102609000D01*
X79981000Y-102649000D02*
X83285000Y-102649000D01*
X74195000Y-102649000D02*
X77499000Y-102649000D01*
X79981000Y-102689000D02*
X83304000Y-102689000D01*
X74176000Y-102689000D02*
X77499000Y-102689000D01*
X79981000Y-102729000D02*
X83324000Y-102729000D01*
X74156000Y-102729000D02*
X77499000Y-102729000D01*
X79981000Y-102769000D02*
X83343000Y-102769000D01*
X74137000Y-102769000D02*
X77499000Y-102769000D01*
X79981000Y-102809000D02*
X83361000Y-102809000D01*
X74119000Y-102809000D02*
X77499000Y-102809000D01*
X79981000Y-102849000D02*
X83379000Y-102849000D01*
X74101000Y-102849000D02*
X77499000Y-102849000D01*
X79981000Y-102889000D02*
X83397000Y-102889000D01*
X74083000Y-102889000D02*
X77499000Y-102889000D01*
X79981000Y-102929000D02*
X83414000Y-102929000D01*
X74066000Y-102929000D02*
X77499000Y-102929000D01*
X79981000Y-102969000D02*
X83430000Y-102969000D01*
X74050000Y-102969000D02*
X77499000Y-102969000D01*
X79981000Y-103009000D02*
X83447000Y-103009000D01*
X74033000Y-103009000D02*
X77499000Y-103009000D01*
X79981000Y-103049000D02*
X83463000Y-103049000D01*
X74017000Y-103049000D02*
X77499000Y-103049000D01*
X79981000Y-103089000D02*
X83478000Y-103089000D01*
X74002000Y-103089000D02*
X77499000Y-103089000D01*
X79981000Y-103129000D02*
X83494000Y-103129000D01*
X73986000Y-103129000D02*
X77499000Y-103129000D01*
X79981000Y-103169000D02*
X83508000Y-103169000D01*
X73972000Y-103169000D02*
X77499000Y-103169000D01*
X79981000Y-103209000D02*
X83523000Y-103209000D01*
X73957000Y-103209000D02*
X77499000Y-103209000D01*
X79981000Y-103249000D02*
X83537000Y-103249000D01*
X73943000Y-103249000D02*
X77499000Y-103249000D01*
X79981000Y-103289000D02*
X83551000Y-103289000D01*
X73929000Y-103289000D02*
X77499000Y-103289000D01*
X79981000Y-103329000D02*
X83564000Y-103329000D01*
X73916000Y-103329000D02*
X77499000Y-103329000D01*
X79981000Y-103369000D02*
X83577000Y-103369000D01*
X73903000Y-103369000D02*
X77499000Y-103369000D01*
X79981000Y-103409000D02*
X83590000Y-103409000D01*
X73890000Y-103409000D02*
X77499000Y-103409000D01*
X79981000Y-103449000D02*
X83602000Y-103449000D01*
X73878000Y-103449000D02*
X77499000Y-103449000D01*
X79981000Y-103489000D02*
X83614000Y-103489000D01*
X73866000Y-103489000D02*
X77499000Y-103489000D01*
X79981000Y-103529000D02*
X83625000Y-103529000D01*
X73855000Y-103529000D02*
X77499000Y-103529000D01*
X79981000Y-103569000D02*
X83637000Y-103569000D01*
X73843000Y-103569000D02*
X77499000Y-103569000D01*
X79981000Y-103609000D02*
X83647000Y-103609000D01*
X73833000Y-103609000D02*
X77499000Y-103609000D01*
X79981000Y-103649000D02*
X83658000Y-103649000D01*
X73822000Y-103649000D02*
X77499000Y-103649000D01*
X79981000Y-103689000D02*
X83668000Y-103689000D01*
X73812000Y-103689000D02*
X77499000Y-103689000D01*
X79981000Y-103729000D02*
X83678000Y-103729000D01*
X73802000Y-103729000D02*
X77499000Y-103729000D01*
X79981000Y-103769000D02*
X83687000Y-103769000D01*
X73793000Y-103769000D02*
X77499000Y-103769000D01*
X79981000Y-103809000D02*
X83696000Y-103809000D01*
X73784000Y-103809000D02*
X77499000Y-103809000D01*
X79981000Y-103849000D02*
X83705000Y-103849000D01*
X73775000Y-103849000D02*
X77499000Y-103849000D01*
X79981000Y-103889000D02*
X83714000Y-103889000D01*
X73766000Y-103889000D02*
X77499000Y-103889000D01*
X79981000Y-103929000D02*
X83722000Y-103929000D01*
X73758000Y-103929000D02*
X77499000Y-103929000D01*
X79981000Y-103969000D02*
X83730000Y-103969000D01*
X73750000Y-103969000D02*
X77499000Y-103969000D01*
X79981000Y-104009000D02*
X83737000Y-104009000D01*
X73743000Y-104009000D02*
X77499000Y-104009000D01*
X79981000Y-104049000D02*
X83744000Y-104049000D01*
X73736000Y-104049000D02*
X77499000Y-104049000D01*
X79981000Y-104089000D02*
X83751000Y-104089000D01*
X73729000Y-104089000D02*
X77499000Y-104089000D01*
X79981000Y-104129000D02*
X83758000Y-104129000D01*
X73722000Y-104129000D02*
X77499000Y-104129000D01*
X79981000Y-104169000D02*
X83764000Y-104169000D01*
X73716000Y-104169000D02*
X77499000Y-104169000D01*
X79981000Y-104209000D02*
X83770000Y-104209000D01*
X73710000Y-104209000D02*
X77499000Y-104209000D01*
X79981000Y-104250000D02*
X83775000Y-104250000D01*
X73705000Y-104250000D02*
X77499000Y-104250000D01*
X79981000Y-104290000D02*
X83780000Y-104290000D01*
X73700000Y-104290000D02*
X77499000Y-104290000D01*
X79981000Y-104330000D02*
X83785000Y-104330000D01*
X73695000Y-104330000D02*
X77499000Y-104330000D01*
X79981000Y-104370000D02*
X83790000Y-104370000D01*
X73690000Y-104370000D02*
X77499000Y-104370000D01*
X79981000Y-104410000D02*
X83794000Y-104410000D01*
X73686000Y-104410000D02*
X77499000Y-104410000D01*
X73682000Y-104450000D02*
X83798000Y-104450000D01*
X73678000Y-104490000D02*
X83802000Y-104490000D01*
X73675000Y-104530000D02*
X83805000Y-104530000D01*
X73672000Y-104570000D02*
X83808000Y-104570000D01*
X73670000Y-104610000D02*
X83810000Y-104610000D01*
X73667000Y-104650000D02*
X83813000Y-104650000D01*
X73665000Y-104690000D02*
X83815000Y-104690000D01*
X73663000Y-104730000D02*
X83817000Y-104730000D01*
X73662000Y-104770000D02*
X83818000Y-104770000D01*
X73661000Y-104810000D02*
X83819000Y-104810000D01*
X73660000Y-104850000D02*
X83820000Y-104850000D01*
X73660000Y-104890000D02*
X83820000Y-104890000D01*
X73660000Y-104930000D02*
X83820000Y-104930000D01*
X83860000Y-104930000D02*
G75*
G03*
X83860000Y-104930000I-5120000J0D01*
G01*
%TO.C,D1*%
X90110000Y-104710000D02*
X90110000Y-108650000D01*
X90350000Y-104710000D02*
X90350000Y-108650000D01*
X90230000Y-104710000D02*
X90230000Y-108650000D01*
X97915000Y-108650000D02*
X97915000Y-108320000D01*
X88775000Y-108650000D02*
X97915000Y-108650000D01*
X88775000Y-108320000D02*
X88775000Y-108650000D01*
X97915000Y-104710000D02*
X97915000Y-105040000D01*
X88775000Y-104710000D02*
X97915000Y-104710000D01*
X88775000Y-105040000D02*
X88775000Y-104710000D01*
%TO.C,J1*%
X85990000Y-87890001D02*
X85990000Y-90490001D01*
X71290000Y-87890001D02*
X85990000Y-87890001D01*
X85990000Y-97090001D02*
X84090000Y-97090001D01*
X85990000Y-94390001D02*
X85990000Y-97090001D01*
X71290000Y-97090001D02*
X71290000Y-87890001D01*
X80090000Y-97090001D02*
X71290000Y-97090001D01*
X85140000Y-87690001D02*
X86190000Y-87690001D01*
X86190000Y-88740001D02*
X86190000Y-87690001D01*
%TO.C,Q1*%
X91996961Y-87215856D02*
X92887916Y-86324902D01*
X91219144Y-86438039D02*
X91996961Y-87215856D01*
X92110098Y-85547084D02*
X91219144Y-86438039D01*
X92887629Y-86324674D02*
G75*
G03*
X92110098Y-85547084I2997371J3774674D01*
G01*
%TO.C,R1*%
X88910000Y-110475000D02*
X88910000Y-110955000D01*
X99050000Y-110475000D02*
X88910000Y-110475000D01*
X99050000Y-110955000D02*
X99050000Y-110475000D01*
X88910000Y-114315000D02*
X88910000Y-113835000D01*
X99050000Y-114315000D02*
X88910000Y-114315000D01*
X99050000Y-113835000D02*
X99050000Y-114315000D01*
%TO.C,RV1*%
X89645000Y-97980000D02*
X91885000Y-97980000D01*
X89645000Y-101721000D02*
X91885000Y-101721000D01*
X91885000Y-101721000D02*
X91885000Y-97980000D01*
X89645000Y-101721000D02*
X89645000Y-97980000D01*
X89331000Y-101721000D02*
X92200000Y-101721000D01*
X87495000Y-97980000D02*
X94035000Y-97980000D01*
X94035000Y-100675000D02*
X94035000Y-97980000D01*
X87495000Y-100675000D02*
X87495000Y-97980000D01*
%TO.C,M3*%
D12*
X77295476Y-116022380D02*
X77295476Y-115022380D01*
X77628809Y-115736666D01*
X77962142Y-115022380D01*
X77962142Y-116022380D01*
X78343095Y-115022380D02*
X78962142Y-115022380D01*
X78628809Y-115403333D01*
X78771666Y-115403333D01*
X78866904Y-115450952D01*
X78914523Y-115498571D01*
X78962142Y-115593809D01*
X78962142Y-115831904D01*
X78914523Y-115927142D01*
X78866904Y-115974761D01*
X78771666Y-116022380D01*
X78485952Y-116022380D01*
X78390714Y-115974761D01*
X78343095Y-115927142D01*
X98885476Y-72207380D02*
X98885476Y-71207380D01*
X99218809Y-71921666D01*
X99552142Y-71207380D01*
X99552142Y-72207380D01*
X99933095Y-71207380D02*
X100552142Y-71207380D01*
X100218809Y-71588333D01*
X100361666Y-71588333D01*
X100456904Y-71635952D01*
X100504523Y-71683571D01*
X100552142Y-71778809D01*
X100552142Y-72016904D01*
X100504523Y-72112142D01*
X100456904Y-72159761D01*
X100361666Y-72207380D01*
X100075952Y-72207380D01*
X99980714Y-72159761D01*
X99933095Y-72112142D01*
%TO.C,TH1*%
X98349285Y-89257380D02*
X98920714Y-89257380D01*
X98635000Y-90257380D02*
X98635000Y-89257380D01*
X99254047Y-90257380D02*
X99254047Y-89257380D01*
X99254047Y-89733571D02*
X99825476Y-89733571D01*
X99825476Y-90257380D02*
X99825476Y-89257380D01*
X100825476Y-90257380D02*
X100254047Y-90257380D01*
X100539761Y-90257380D02*
X100539761Y-89257380D01*
X100444523Y-89400238D01*
X100349285Y-89495476D01*
X100254047Y-89543095D01*
%TO.C,BZ1*%
X81659047Y-76128571D02*
X81801904Y-76176190D01*
X81849523Y-76223809D01*
X81897142Y-76319047D01*
X81897142Y-76461904D01*
X81849523Y-76557142D01*
X81801904Y-76604761D01*
X81706666Y-76652380D01*
X81325714Y-76652380D01*
X81325714Y-75652380D01*
X81659047Y-75652380D01*
X81754285Y-75700000D01*
X81801904Y-75747619D01*
X81849523Y-75842857D01*
X81849523Y-75938095D01*
X81801904Y-76033333D01*
X81754285Y-76080952D01*
X81659047Y-76128571D01*
X81325714Y-76128571D01*
X82230476Y-75652380D02*
X82897142Y-75652380D01*
X82230476Y-76652380D01*
X82897142Y-76652380D01*
X83801904Y-76652380D02*
X83230476Y-76652380D01*
X83516190Y-76652380D02*
X83516190Y-75652380D01*
X83420952Y-75795238D01*
X83325714Y-75890476D01*
X83230476Y-75938095D01*
X78349047Y-77541428D02*
X79110952Y-77541428D01*
X78730000Y-77922380D02*
X78730000Y-77160476D01*
%TO.C,C1*%
X72847142Y-105096666D02*
X72894761Y-105144285D01*
X72942380Y-105287142D01*
X72942380Y-105382380D01*
X72894761Y-105525238D01*
X72799523Y-105620476D01*
X72704285Y-105668095D01*
X72513809Y-105715714D01*
X72370952Y-105715714D01*
X72180476Y-105668095D01*
X72085238Y-105620476D01*
X71990000Y-105525238D01*
X71942380Y-105382380D01*
X71942380Y-105287142D01*
X71990000Y-105144285D01*
X72037619Y-105096666D01*
X72942380Y-104144285D02*
X72942380Y-104715714D01*
X72942380Y-104430000D02*
X71942380Y-104430000D01*
X72085238Y-104525238D01*
X72180476Y-104620476D01*
X72228095Y-104715714D01*
%TO.C,D1*%
X92606904Y-106497380D02*
X92606904Y-105497380D01*
X92845000Y-105497380D01*
X92987857Y-105545000D01*
X93083095Y-105640238D01*
X93130714Y-105735476D01*
X93178333Y-105925952D01*
X93178333Y-106068809D01*
X93130714Y-106259285D01*
X93083095Y-106354523D01*
X92987857Y-106449761D01*
X92845000Y-106497380D01*
X92606904Y-106497380D01*
X94130714Y-106497380D02*
X93559285Y-106497380D01*
X93845000Y-106497380D02*
X93845000Y-105497380D01*
X93749761Y-105640238D01*
X93654523Y-105735476D01*
X93559285Y-105783095D01*
X88003095Y-104732380D02*
X88003095Y-103732380D01*
X88574523Y-104732380D02*
X88145952Y-104160952D01*
X88574523Y-103732380D02*
X88003095Y-104303809D01*
%TO.C,J1*%
X76306666Y-97692381D02*
X76306666Y-98406667D01*
X76259047Y-98549524D01*
X76163809Y-98644762D01*
X76020952Y-98692381D01*
X75925714Y-98692381D01*
X77306666Y-98692381D02*
X76735238Y-98692381D01*
X77020952Y-98692381D02*
X77020952Y-97692381D01*
X76925714Y-97835239D01*
X76830476Y-97930477D01*
X76735238Y-97978096D01*
%TO.C,Q1*%
X90612619Y-82645238D02*
X90565000Y-82740476D01*
X90469761Y-82835714D01*
X90326904Y-82978571D01*
X90279285Y-83073809D01*
X90279285Y-83169047D01*
X90517380Y-83121428D02*
X90469761Y-83216666D01*
X90374523Y-83311904D01*
X90184047Y-83359523D01*
X89850714Y-83359523D01*
X89660238Y-83311904D01*
X89565000Y-83216666D01*
X89517380Y-83121428D01*
X89517380Y-82930952D01*
X89565000Y-82835714D01*
X89660238Y-82740476D01*
X89850714Y-82692857D01*
X90184047Y-82692857D01*
X90374523Y-82740476D01*
X90469761Y-82835714D01*
X90517380Y-82930952D01*
X90517380Y-83121428D01*
X90517380Y-81740476D02*
X90517380Y-82311904D01*
X90517380Y-82026190D02*
X89517380Y-82026190D01*
X89660238Y-82121428D01*
X89755476Y-82216666D01*
X89803095Y-82311904D01*
%TO.C,R1*%
X93813333Y-112847380D02*
X93480000Y-112371190D01*
X93241904Y-112847380D02*
X93241904Y-111847380D01*
X93622857Y-111847380D01*
X93718095Y-111895000D01*
X93765714Y-111942619D01*
X93813333Y-112037857D01*
X93813333Y-112180714D01*
X93765714Y-112275952D01*
X93718095Y-112323571D01*
X93622857Y-112371190D01*
X93241904Y-112371190D01*
X94765714Y-112847380D02*
X94194285Y-112847380D01*
X94480000Y-112847380D02*
X94480000Y-111847380D01*
X94384761Y-111990238D01*
X94289523Y-112085476D01*
X94194285Y-112133095D01*
%TO.C,RV1*%
X86657380Y-102195238D02*
X86181190Y-102528571D01*
X86657380Y-102766666D02*
X85657380Y-102766666D01*
X85657380Y-102385714D01*
X85705000Y-102290476D01*
X85752619Y-102242857D01*
X85847857Y-102195238D01*
X85990714Y-102195238D01*
X86085952Y-102242857D01*
X86133571Y-102290476D01*
X86181190Y-102385714D01*
X86181190Y-102766666D01*
X85657380Y-101909523D02*
X86657380Y-101576190D01*
X85657380Y-101242857D01*
X86657380Y-100385714D02*
X86657380Y-100957142D01*
X86657380Y-100671428D02*
X85657380Y-100671428D01*
X85800238Y-100766666D01*
X85895476Y-100861904D01*
X85943095Y-100957142D01*
%TD*%
M02*
